<mxfile host="app.diagrams.net" modified="2022-06-18T12:04:51.067Z" agent="5.0 (Windows NT 10.0; Win64; x64) AppleWebKit/537.36 (KHTML, like Gecko) Chrome/102.0.5005.124 Safari/537.36 Edg/102.0.1245.41" etag="ybrNngeWGvVXNUCzYouF" version="20.0.1" type="github">
  <diagram id="prtHgNgQTEPvFCAcTncT" name="Page-1">
    <mxGraphModel dx="942" dy="674" grid="1" gridSize="10" guides="1" tooltips="1" connect="1" arrows="1" fold="1" page="1" pageScale="1" pageWidth="827" pageHeight="1169" math="0" shadow="0">
      <root>
        <mxCell id="0" />
        <mxCell id="1" parent="0" />
        <mxCell id="rgX9GI_zGODbMUQfdlVH-11" style="edgeStyle=orthogonalEdgeStyle;rounded=0;orthogonalLoop=1;jettySize=auto;html=1;exitX=1;exitY=0.5;exitDx=0;exitDy=0;entryX=0;entryY=0.5;entryDx=0;entryDy=0;" edge="1" parent="1" source="rgX9GI_zGODbMUQfdlVH-1" target="rgX9GI_zGODbMUQfdlVH-2">
          <mxGeometry relative="1" as="geometry" />
        </mxCell>
        <mxCell id="rgX9GI_zGODbMUQfdlVH-1" value="&lt;span style=&quot;font-size:12.0pt;font-family:宋体;&lt;br/&gt;mso-bidi-font-family:宋体;mso-font-kerning:1.0pt;mso-ansi-language:EN-US;&lt;br/&gt;mso-fareast-language:ZH-CN;mso-bidi-language:AR-SA&quot;&gt;数据采集&lt;/span&gt;" style="rounded=0;whiteSpace=wrap;html=1;" vertex="1" parent="1">
          <mxGeometry x="60" y="300" width="120" height="60" as="geometry" />
        </mxCell>
        <mxCell id="rgX9GI_zGODbMUQfdlVH-12" style="edgeStyle=orthogonalEdgeStyle;rounded=0;orthogonalLoop=1;jettySize=auto;html=1;exitX=1;exitY=0.5;exitDx=0;exitDy=0;" edge="1" parent="1" source="rgX9GI_zGODbMUQfdlVH-2" target="rgX9GI_zGODbMUQfdlVH-3">
          <mxGeometry relative="1" as="geometry" />
        </mxCell>
        <mxCell id="rgX9GI_zGODbMUQfdlVH-15" style="edgeStyle=orthogonalEdgeStyle;rounded=0;orthogonalLoop=1;jettySize=auto;html=1;exitX=0.5;exitY=1;exitDx=0;exitDy=0;entryX=0;entryY=0.5;entryDx=0;entryDy=0;" edge="1" parent="1" source="rgX9GI_zGODbMUQfdlVH-2" target="rgX9GI_zGODbMUQfdlVH-8">
          <mxGeometry relative="1" as="geometry" />
        </mxCell>
        <mxCell id="rgX9GI_zGODbMUQfdlVH-2" value="&lt;span style=&quot;font-size:12.0pt;font-family:宋体;&lt;br/&gt;mso-bidi-font-family:宋体;mso-font-kerning:1.0pt;mso-ansi-language:EN-US;&lt;br/&gt;mso-fareast-language:ZH-CN;mso-bidi-language:AR-SA&quot;&gt;标准数据&lt;/span&gt;" style="rounded=0;whiteSpace=wrap;html=1;" vertex="1" parent="1">
          <mxGeometry x="220" y="300" width="120" height="60" as="geometry" />
        </mxCell>
        <mxCell id="rgX9GI_zGODbMUQfdlVH-13" style="edgeStyle=orthogonalEdgeStyle;rounded=0;orthogonalLoop=1;jettySize=auto;html=1;exitX=1;exitY=0.5;exitDx=0;exitDy=0;entryX=0;entryY=0.5;entryDx=0;entryDy=0;" edge="1" parent="1" source="rgX9GI_zGODbMUQfdlVH-3" target="rgX9GI_zGODbMUQfdlVH-4">
          <mxGeometry relative="1" as="geometry" />
        </mxCell>
        <mxCell id="rgX9GI_zGODbMUQfdlVH-3" value="&lt;span style=&quot;font-size:12.0pt;font-family:宋体;&lt;br/&gt;mso-bidi-font-family:宋体;mso-font-kerning:1.0pt;mso-ansi-language:EN-US;&lt;br/&gt;mso-fareast-language:ZH-CN;mso-bidi-language:AR-SA&quot;&gt;训练集&lt;/span&gt;" style="rounded=0;whiteSpace=wrap;html=1;" vertex="1" parent="1">
          <mxGeometry x="370" y="300" width="120" height="60" as="geometry" />
        </mxCell>
        <mxCell id="rgX9GI_zGODbMUQfdlVH-14" style="edgeStyle=orthogonalEdgeStyle;rounded=0;orthogonalLoop=1;jettySize=auto;html=1;exitX=1;exitY=0.5;exitDx=0;exitDy=0;entryX=0;entryY=0.5;entryDx=0;entryDy=0;" edge="1" parent="1" source="rgX9GI_zGODbMUQfdlVH-4" target="rgX9GI_zGODbMUQfdlVH-5">
          <mxGeometry relative="1" as="geometry" />
        </mxCell>
        <mxCell id="rgX9GI_zGODbMUQfdlVH-4" value="&lt;span style=&quot;font-size:12.0pt;font-family:宋体;&lt;br/&gt;mso-bidi-font-family:宋体;mso-font-kerning:1.0pt;mso-ansi-language:EN-US;&lt;br/&gt;mso-fareast-language:ZH-CN;mso-bidi-language:AR-SA&quot;&gt;随机森林预测模型&lt;/span&gt;" style="rounded=0;whiteSpace=wrap;html=1;" vertex="1" parent="1">
          <mxGeometry x="520" y="300" width="120" height="60" as="geometry" />
        </mxCell>
        <mxCell id="rgX9GI_zGODbMUQfdlVH-18" style="edgeStyle=orthogonalEdgeStyle;rounded=0;orthogonalLoop=1;jettySize=auto;html=1;exitX=0.5;exitY=1;exitDx=0;exitDy=0;entryX=0.5;entryY=0;entryDx=0;entryDy=0;" edge="1" parent="1" source="rgX9GI_zGODbMUQfdlVH-5" target="rgX9GI_zGODbMUQfdlVH-7">
          <mxGeometry relative="1" as="geometry" />
        </mxCell>
        <mxCell id="rgX9GI_zGODbMUQfdlVH-5" value="&lt;span style=&quot;font-size:12.0pt;font-family:宋体;&lt;br/&gt;mso-bidi-font-family:宋体;mso-font-kerning:1.0pt;mso-ansi-language:EN-US;&lt;br/&gt;mso-fareast-language:ZH-CN;mso-bidi-language:AR-SA&quot;&gt;训练后的模型&lt;/span&gt;" style="rounded=0;whiteSpace=wrap;html=1;" vertex="1" parent="1">
          <mxGeometry x="670" y="300" width="120" height="60" as="geometry" />
        </mxCell>
        <mxCell id="rgX9GI_zGODbMUQfdlVH-17" style="edgeStyle=orthogonalEdgeStyle;rounded=0;orthogonalLoop=1;jettySize=auto;html=1;exitX=0.5;exitY=1;exitDx=0;exitDy=0;entryX=0.5;entryY=0;entryDx=0;entryDy=0;" edge="1" parent="1" source="rgX9GI_zGODbMUQfdlVH-6" target="rgX9GI_zGODbMUQfdlVH-5">
          <mxGeometry relative="1" as="geometry" />
        </mxCell>
        <mxCell id="rgX9GI_zGODbMUQfdlVH-6" value="&lt;span style=&quot;font-size:12.0pt;font-family:宋体;&lt;br/&gt;mso-bidi-font-family:宋体;mso-font-kerning:1.0pt;mso-ansi-language:EN-US;&lt;br/&gt;mso-fareast-language:ZH-CN;mso-bidi-language:AR-SA&quot;&gt;待预测样本&lt;/span&gt;" style="rounded=0;whiteSpace=wrap;html=1;" vertex="1" parent="1">
          <mxGeometry x="670" y="190" width="120" height="60" as="geometry" />
        </mxCell>
        <mxCell id="rgX9GI_zGODbMUQfdlVH-19" style="edgeStyle=orthogonalEdgeStyle;rounded=0;orthogonalLoop=1;jettySize=auto;html=1;exitX=0.5;exitY=1;exitDx=0;exitDy=0;" edge="1" parent="1" source="rgX9GI_zGODbMUQfdlVH-7" target="rgX9GI_zGODbMUQfdlVH-9">
          <mxGeometry relative="1" as="geometry" />
        </mxCell>
        <mxCell id="rgX9GI_zGODbMUQfdlVH-7" value="&lt;span style=&quot;font-size:12.0pt;font-family:宋体;&lt;br/&gt;mso-bidi-font-family:宋体;mso-font-kerning:1.0pt;mso-ansi-language:EN-US;&lt;br/&gt;mso-fareast-language:ZH-CN;mso-bidi-language:AR-SA&quot;&gt;预测结果&lt;/span&gt;" style="rounded=0;whiteSpace=wrap;html=1;" vertex="1" parent="1">
          <mxGeometry x="670" y="410" width="120" height="60" as="geometry" />
        </mxCell>
        <mxCell id="rgX9GI_zGODbMUQfdlVH-16" style="edgeStyle=orthogonalEdgeStyle;rounded=0;orthogonalLoop=1;jettySize=auto;html=1;exitX=1;exitY=0.5;exitDx=0;exitDy=0;entryX=0.5;entryY=1;entryDx=0;entryDy=0;startArrow=none;" edge="1" parent="1" source="rgX9GI_zGODbMUQfdlVH-25" target="rgX9GI_zGODbMUQfdlVH-4">
          <mxGeometry relative="1" as="geometry" />
        </mxCell>
        <mxCell id="rgX9GI_zGODbMUQfdlVH-8" value="&lt;span style=&quot;font-size:12.0pt;font-family:宋体;&lt;br/&gt;mso-bidi-font-family:宋体;mso-font-kerning:1.0pt;mso-ansi-language:EN-US;&lt;br/&gt;mso-fareast-language:ZH-CN;mso-bidi-language:AR-SA&quot;&gt;测试集&lt;/span&gt;" style="rounded=0;whiteSpace=wrap;html=1;" vertex="1" parent="1">
          <mxGeometry x="370" y="410" width="120" height="60" as="geometry" />
        </mxCell>
        <mxCell id="rgX9GI_zGODbMUQfdlVH-20" style="edgeStyle=orthogonalEdgeStyle;rounded=0;orthogonalLoop=1;jettySize=auto;html=1;exitX=0.5;exitY=1;exitDx=0;exitDy=0;entryX=0.5;entryY=0;entryDx=0;entryDy=0;" edge="1" parent="1" source="rgX9GI_zGODbMUQfdlVH-9" target="rgX9GI_zGODbMUQfdlVH-10">
          <mxGeometry relative="1" as="geometry" />
        </mxCell>
        <mxCell id="rgX9GI_zGODbMUQfdlVH-9" value="&lt;span style=&quot;font-size:12.0pt;font-family:宋体;&lt;br/&gt;mso-bidi-font-family:宋体;mso-font-kerning:1.0pt;mso-ansi-language:EN-US;&lt;br/&gt;mso-fareast-language:ZH-CN;mso-bidi-language:AR-SA&quot;&gt;量化投资模型&lt;/span&gt;" style="rounded=0;whiteSpace=wrap;html=1;" vertex="1" parent="1">
          <mxGeometry x="670" y="520" width="120" height="60" as="geometry" />
        </mxCell>
        <mxCell id="rgX9GI_zGODbMUQfdlVH-10" value="&lt;span style=&quot;font-size:10.5pt;mso-bidi-font-size:11.0pt;&lt;br/&gt;font-family:宋体;mso-ascii-font-family:Calibri;mso-ascii-theme-font:minor-latin;&lt;br/&gt;mso-fareast-theme-font:minor-fareast;mso-hansi-font-family:Calibri;mso-hansi-theme-font:&lt;br/&gt;minor-latin;mso-bidi-font-family:&amp;quot;Times New Roman&amp;quot;;mso-bidi-theme-font:minor-bidi;&lt;br/&gt;mso-ansi-language:EN-US;mso-fareast-language:ZH-CN;mso-bidi-language:AR-SA&quot;&gt;总收益率&lt;br&gt;信息比率&lt;br&gt;最大回撤率&lt;/span&gt;" style="rounded=0;whiteSpace=wrap;html=1;" vertex="1" parent="1">
          <mxGeometry x="670" y="630" width="120" height="60" as="geometry" />
        </mxCell>
        <mxCell id="rgX9GI_zGODbMUQfdlVH-21" value="&lt;span style=&quot;&quot;&gt;基于主成分分析&lt;br&gt;特征选择&lt;/span&gt;" style="text;html=1;align=center;verticalAlign=middle;resizable=0;points=[];autosize=1;strokeColor=none;fillColor=none;" vertex="1" parent="1">
          <mxGeometry x="145" y="275" width="100" height="30" as="geometry" />
        </mxCell>
        <mxCell id="rgX9GI_zGODbMUQfdlVH-22" value="&lt;p style=&quot;text-align:left;line-height:150%;&lt;br/&gt;mso-pagination:widow-orphan&quot; align=&quot;left&quot; class=&quot;MsoNormal&quot;&gt;&lt;span style=&quot;font-size:12.0pt;line-height:150%;&lt;br/&gt;font-family:宋体;mso-bidi-font-family:宋体&quot;&gt;划分数据集&lt;span lang=&quot;EN-US&quot;&gt;&lt;/span&gt;&lt;/span&gt;&lt;/p&gt;" style="text;html=1;align=center;verticalAlign=middle;resizable=0;points=[];autosize=1;strokeColor=none;fillColor=none;" vertex="1" parent="1">
          <mxGeometry x="310" y="270" width="80" height="40" as="geometry" />
        </mxCell>
        <mxCell id="rgX9GI_zGODbMUQfdlVH-24" value="&lt;span style=&quot;font-size:12.0pt;font-family:宋体;&lt;br/&gt;mso-bidi-font-family:宋体;mso-font-kerning:1.0pt;mso-ansi-language:EN-US;&lt;br/&gt;mso-fareast-language:ZH-CN;mso-bidi-language:AR-SA&quot;&gt;训练模型&lt;/span&gt;" style="text;html=1;align=center;verticalAlign=middle;resizable=0;points=[];autosize=1;strokeColor=none;fillColor=none;" vertex="1" parent="1">
          <mxGeometry x="480" y="280" width="60" height="20" as="geometry" />
        </mxCell>
        <mxCell id="rgX9GI_zGODbMUQfdlVH-25" value="&lt;span style=&quot;font-size:12.0pt;font-family:宋体;&lt;br/&gt;mso-bidi-font-family:宋体;mso-font-kerning:1.0pt;mso-ansi-language:EN-US;&lt;br/&gt;mso-fareast-language:ZH-CN;mso-bidi-language:AR-SA&quot;&gt;测试模型&lt;/span&gt;" style="text;html=1;align=center;verticalAlign=middle;resizable=0;points=[];autosize=1;strokeColor=none;fillColor=none;" vertex="1" parent="1">
          <mxGeometry x="480" y="420" width="60" height="20" as="geometry" />
        </mxCell>
        <mxCell id="rgX9GI_zGODbMUQfdlVH-26" value="" style="edgeStyle=orthogonalEdgeStyle;rounded=0;orthogonalLoop=1;jettySize=auto;html=1;exitX=1;exitY=0.5;exitDx=0;exitDy=0;entryX=0.5;entryY=1;entryDx=0;entryDy=0;endArrow=none;" edge="1" parent="1" source="rgX9GI_zGODbMUQfdlVH-8" target="rgX9GI_zGODbMUQfdlVH-25">
          <mxGeometry relative="1" as="geometry">
            <mxPoint x="490" y="440" as="sourcePoint" />
            <mxPoint x="580" y="360" as="targetPoint" />
          </mxGeometry>
        </mxCell>
        <mxCell id="rgX9GI_zGODbMUQfdlVH-27" value="&lt;span style=&quot;font-size:12.0pt;font-family:宋体;&lt;br/&gt;mso-bidi-font-family:宋体;mso-font-kerning:1.0pt;mso-ansi-language:EN-US;&lt;br/&gt;mso-fareast-language:ZH-CN;mso-bidi-language:AR-SA&quot;&gt;模型的应用&lt;/span&gt;" style="text;html=1;align=center;verticalAlign=middle;resizable=0;points=[];autosize=1;strokeColor=none;fillColor=none;" vertex="1" parent="1">
          <mxGeometry x="650" y="270" width="80" height="20" as="geometry" />
        </mxCell>
        <mxCell id="rgX9GI_zGODbMUQfdlVH-28" value="&lt;span style=&quot;font-size:12.0pt;font-family:宋体;&lt;br/&gt;mso-bidi-font-family:宋体;mso-font-kerning:1.0pt;mso-ansi-language:EN-US;&lt;br/&gt;mso-fareast-language:ZH-CN;mso-bidi-language:AR-SA&quot;&gt;求出最优解&lt;/span&gt;" style="text;html=1;align=center;verticalAlign=middle;resizable=0;points=[];autosize=1;strokeColor=none;fillColor=none;" vertex="1" parent="1">
          <mxGeometry x="660" y="600" width="80" height="20" as="geometry" />
        </mxCell>
      </root>
    </mxGraphModel>
  </diagram>
</mxfile>
